<svg width="26" height="41" viewBox="0 0 26 41" fill="none" xmlns="http://www.w3.org/2000/svg">
<path id="Vector" d="M0.300882 18.0852C0.352242 17.7511 0.65612 17.7383 0.90864 17.7083C1.91872 17.5927 2.92451 17.4727 3.93459 17.3913C5.56954 17.2629 7.20878 17.1687 8.84374 17.053C9.57561 17.0016 9.57561 16.993 9.80673 16.2906C10.376 14.5602 10.8724 12.7998 11.5316 11.1037C12.1864 9.42036 12.6187 7.68137 13.1109 5.95525C13.5004 4.58034 13.6758 3.154 13.9112 1.74483C14.0054 1.59064 14.1038 1.43646 14.198 1.27798C14.5147 0.742581 14.977 0.708337 15.3622 1.19234C15.4991 1.35938 15.5719 1.55639 15.5847 1.76627C15.619 2.3188 15.803 2.83277 15.9485 3.35961C16.2139 4.31476 16.5006 5.26137 16.7275 6.2208C17.0613 7.61284 17.2411 9.03487 17.4251 10.4569C17.6348 12.0545 17.9986 13.6307 18.1613 15.2412C18.234 15.9479 18.2683 15.9651 18.9745 15.9694C20.4083 15.9779 21.8378 15.9779 23.2716 15.9822C23.6525 15.9822 23.9607 16.1449 24.0206 16.5261C24.0719 16.8774 23.905 17.1087 23.5327 17.2928C22.5097 17.7983 19.1928 20.1712 19.1756 20.2525C19.15 20.3853 19.2569 20.3339 19.3554 20.3553C21.0075 20.7108 22.6938 20.8693 24.3416 21.2376C24.6711 21.3105 24.8552 21.4604 24.9408 21.7602C25.0264 22.0558 25.0007 22.3299 24.7653 22.5526C24.5171 22.7925 24.2132 22.9467 23.9093 23.0923C22.9977 23.5378 22.0775 23.9703 21.1701 24.4201C20.8577 24.5743 20.5153 24.7113 20.3098 24.994C20.3355 25.0711 20.3398 25.114 20.3526 25.1182C22.0304 25.6536 23.3829 26.8358 25.005 27.4826C25.3559 27.6239 25.5143 27.8723 25.4929 28.275C25.4672 28.7247 25.1719 28.8446 24.8295 28.9046C24.1618 29.0159 23.4899 29.0973 22.8093 29.0973C20.7763 29.0973 18.7434 29.1102 16.7104 29.0973C16.2866 29.0973 16.0127 29.2173 15.8672 29.6199C15.5419 30.5279 15.1396 31.4017 14.9556 32.3568C14.489 34.734 13.7614 37.0469 13.2992 39.4284C13.128 40.3065 12.4774 40.4392 11.8483 39.7968C11.6942 39.6383 11.6428 39.4327 11.5915 39.2356C10.8425 36.2031 10.0849 33.1706 9.36589 30.1338C9.27601 29.7484 9.13049 29.7012 8.79666 29.7098C7.70098 29.7398 6.60958 29.7269 5.51391 29.7569C5.04311 29.7698 4.64935 29.607 4.28127 29.3415C4.06299 29.183 3.99451 28.9817 4.09723 28.7247C4.18711 28.5063 4.29411 28.3092 4.48243 28.1507C5.35982 27.414 6.15163 26.566 7.24302 26.1248C7.32006 26.0948 7.36714 26.0348 7.36286 25.8978C6.29715 25.5594 5.19719 25.281 4.08867 25.054C3.51087 24.9383 3.02723 24.6385 2.54359 24.3259C2.30391 24.1717 2.30392 23.9703 2.3938 23.7133C2.53932 23.3064 2.89455 23.2893 3.21555 23.2251C4.73923 22.9124 5.90767 21.9872 7.14886 21.0363C6.36135 20.7237 5.6637 20.4453 4.91899 20.2954C4.56375 20.2226 4.19139 20.1712 3.86611 20.0255C2.84319 19.5715 1.83312 19.0961 0.788801 18.6892C0.514881 18.5821 0.236681 18.4407 0.29232 18.0809L0.300882 18.0852Z" fill="#FF4A1A"/>
</svg>
