<svg width="13" height="20" viewBox="0 0 13 20" fill="none" xmlns="http://www.w3.org/2000/svg">
<path id="Vector" d="M9.39135 10.3236C9.42131 10.2594 9.48123 10.2337 9.53687 10.1994C10.0933 9.83962 10.6069 9.41558 11.1547 9.04294C11.2232 8.99582 11.2917 8.94441 11.3388 8.8716C11.4115 8.75167 11.3901 8.67887 11.2489 8.6446C11.0349 8.58892 10.8209 8.5418 10.6026 8.49896C10.2516 8.42615 9.90067 8.35762 9.55827 8.26339C9.09175 8.15203 8.62524 8.03212 8.15872 7.92932C8.056 7.9079 8.00035 7.86936 7.96611 7.77084C7.54239 6.54157 7.0288 5.34655 6.65216 4.10014C6.4724 3.50478 6.29264 2.90512 6.08292 2.31832C5.98876 2.04848 5.88604 1.78292 5.78332 1.51308C5.73196 1.38458 5.69344 1.2561 5.66776 1.12332C5.65492 1.05479 5.64636 0.969127 5.5522 0.964844C5.46232 0.964844 5.38528 0.990525 5.34248 1.08047C5.31252 1.14472 5.28684 1.21326 5.26544 1.2818C5.15416 1.6373 5.0814 1.99708 5.03004 2.36543C4.9316 3.04646 4.77325 3.71465 4.61917 4.38711C4.49933 4.90966 4.34525 5.43221 4.29817 5.96761C4.23825 6.60152 4.06277 7.21831 3.99001 7.84794C3.96861 8.04496 3.89157 8.14775 3.73749 8.23341C3.67329 8.26767 3.61337 8.30624 3.54917 8.33194C3.36085 8.4176 3.16825 8.4947 2.98849 8.60178C2.75309 8.74313 2.47917 8.79022 2.22665 8.8973C1.86285 9.05149 1.48621 9.18 1.11385 9.30849C1.02397 9.33848 0.929812 9.37703 0.844212 9.42415C0.707252 9.50125 0.707252 9.5912 0.844212 9.67258C0.959772 9.74111 1.08389 9.80107 1.21229 9.85676C1.84573 10.1309 2.44065 10.4821 3.03129 10.8333C3.28381 10.9832 3.54489 11.116 3.79741 11.2573C3.84877 11.2873 3.89584 11.3173 3.96004 11.3601C3.90868 11.4115 3.84449 11.4201 3.78885 11.4373C3.38225 11.5529 2.97565 11.6557 2.57333 11.7885C2.04261 11.9641 1.49905 12.0797 0.968335 12.2596C0.869896 12.2939 0.771452 12.3324 0.690132 12.3967C0.544613 12.5166 0.557457 12.6451 0.728657 12.7308C1.10958 12.9149 1.47337 13.1291 1.85857 13.309C2.17957 13.4589 2.50913 13.6088 2.81729 13.7844C3.22389 14.0157 3.60908 14.2813 4.00712 14.5254C4.08844 14.5725 4.06705 14.6325 4.04993 14.6925C3.98573 14.9495 3.91725 15.2064 3.84877 15.4634C3.78885 15.6947 3.71609 15.926 3.66045 16.1573C3.54061 16.667 3.29665 17.1296 3.11261 17.6136C3.04841 17.7849 2.98421 17.952 2.92001 18.1233C2.90289 18.1661 2.89005 18.209 2.88577 18.2561C2.88149 18.2946 2.89433 18.3375 2.92429 18.3589C2.96281 18.3846 3.00133 18.3589 3.03129 18.3375C3.16825 18.2261 3.30093 18.1104 3.43789 18.0034C3.96433 17.5965 4.42229 17.1168 4.90165 16.6585C5.10281 16.4657 5.28256 16.2515 5.47516 16.0459C5.49656 16.0245 5.52224 16.0031 5.54364 15.986C5.61212 16.016 5.62068 16.0759 5.64636 16.1273C6.03584 16.8769 6.39536 17.6436 6.72064 18.4231C6.8148 18.6459 6.93036 18.8557 7.04592 19.0656C7.1358 19.2284 7.20856 19.2198 7.30272 19.057C7.48676 18.7487 7.53384 18.3974 7.59376 18.0548C7.71788 17.3737 7.77352 16.6799 7.91048 15.9988C7.97896 15.669 8.06456 15.3435 8.15872 15.0266C8.21436 15.0009 8.25715 15.0308 8.29567 15.048C8.68087 15.2022 9.07463 15.3435 9.46839 15.472C9.52403 15.4891 9.57539 15.5234 9.62675 15.5448C9.81935 15.5748 9.99911 15.6562 10.1832 15.7204C10.7781 15.9303 11.3815 16.1059 11.9593 16.3629C12.0407 16.4015 12.1348 16.4143 12.2204 16.4357C12.2675 16.4486 12.3103 16.4486 12.3403 16.4015C12.3702 16.3586 12.3617 16.3158 12.3317 16.2773C12.2975 16.2301 12.2632 16.183 12.2247 16.1359C11.9508 15.7847 11.7239 15.4035 11.5057 15.0223C11.4201 14.8681 11.3173 14.7353 11.2103 14.5983C10.8679 14.1485 10.5341 13.6902 10.196 13.2319C10.2473 13.1848 10.303 13.1719 10.3543 13.1548C11.0049 12.9321 11.6555 12.7093 12.306 12.4866C12.3574 12.4695 12.4087 12.4652 12.4558 12.4524C12.5799 12.4224 12.6056 12.3367 12.52 12.2382C12.4815 12.1954 12.4344 12.1611 12.3873 12.1268C12.1477 11.9512 11.8823 11.8356 11.6084 11.7242C11.2061 11.5615 10.8123 11.373 10.4357 11.1545C10.1532 10.9918 9.85359 10.8633 9.56255 10.7262C9.49835 10.6962 9.42559 10.6791 9.37423 10.6234C9.33571 10.5635 9.26723 10.5421 9.21159 10.4949C9.24155 10.4093 9.34427 10.4136 9.37423 10.3408L9.39135 10.3236Z" fill="#F5EBE7"/>
</svg>
